<svg xmlns="http://www.w3.org/2000/svg" viewBox="0 0 61.28 12.28"><defs><style>.cls-1{fill:#ff7a7a;}</style></defs><title>未标题-1</title><path class="cls-1" d="M54.09,167.93a8.6,8.6,0,0,1-.58,1.45,5.13,5.13,0,0,1-.85,1.27,4.26,4.26,0,0,1-1.17.9,3.33,3.33,0,0,1-1.54.35,5.52,5.52,0,0,1-.88-.1,3.15,3.15,0,0,1-.63-.22,2.47,2.47,0,0,1-.93-.51,3.5,3.5,0,0,1-.66-.82,3.88,3.88,0,0,1-.4-1,4.57,4.57,0,0,1-.18-1,5.5,5.5,0,0,1,.14-1.75,5.8,5.8,0,0,1,.68-1.64,4.61,4.61,0,0,1,1.17-1.28,3.68,3.68,0,0,1,1.6-.71,4.21,4.21,0,0,1,.94-.06,3.28,3.28,0,0,1,.93.19,5.5,5.5,0,0,1,.69.3,3.62,3.62,0,0,1,.61.44,3.35,3.35,0,0,1,.65.8,3,3,0,0,1,.38.94,4.79,4.79,0,0,1,.14,1.23A9.88,9.88,0,0,1,54.09,167.93Zm-3.43,2.24a2.29,2.29,0,0,0,.69-.45,3.54,3.54,0,0,0,.53-.63,3.94,3.94,0,0,0,.37-.74,7.41,7.41,0,0,0,.28-.79,6.93,6.93,0,0,0,.08-1,2.19,2.19,0,0,0-.22-1,1.74,1.74,0,0,0-.56-.68,2.2,2.2,0,0,0-.83-.4,2.32,2.32,0,0,0-.91-.05,1.75,1.75,0,0,0-.81.36,3.67,3.67,0,0,0-.82.95,4.28,4.28,0,0,0-.47,1.16,4.05,4.05,0,0,0-.14,1.06A2.71,2.71,0,0,0,48,169a2.23,2.23,0,0,0,.43.68,2.08,2.08,0,0,0,.64.47,2,2,0,0,0,.76.2A1.8,1.8,0,0,0,50.66,170.17Z" transform="translate(-46.25 -162.6)"/><path class="cls-1" d="M56.76,171.59a.89.89,0,0,1-.55.17.71.71,0,0,1-.51-.23.82.82,0,0,1-.22-.6v-7.37a.66.66,0,0,1,.24-.52,1.17,1.17,0,0,1,.53-.27.81.81,0,0,1,.55.1.61.61,0,0,1,.27.54,12.37,12.37,0,0,1,0,1.35c0,.43,0,.87,0,1.32a2.88,2.88,0,0,1,1-.45,2.33,2.33,0,0,1,1,0,2.21,2.21,0,0,1,.92.48,2.57,2.57,0,0,1,.69,1A3.4,3.4,0,0,1,61,168a7.93,7.93,0,0,1,.07,1c0,.33,0,.66,0,1s0,.63,0,.93a.89.89,0,0,1-.15.5.87.87,0,0,1-.36.33.84.84,0,0,1-.47.07.76.76,0,0,1-.44-.29,1.34,1.34,0,0,1-.24-.63,3.78,3.78,0,0,1,0-.76c0-.27,0-.55.06-.83a5.55,5.55,0,0,0,0-.81,2.43,2.43,0,0,0-.15-.73,1.16,1.16,0,0,0-.47-.54,1,1,0,0,0-.48,0,1.11,1.11,0,0,0-.38.22,3.43,3.43,0,0,0-.33.33c-.1.13-.2.25-.31.37a.38.38,0,0,1-.09.13l-.12.13V171A1,1,0,0,1,56.76,171.59Z" transform="translate(-46.25 -162.6)"/><path class="cls-1" d="M64.88,171.66a2.92,2.92,0,0,1-.73-.06,2.58,2.58,0,0,1-.7-.22.69.69,0,0,1-.34.09.94.94,0,0,1-.3-.05,1.36,1.36,0,0,1-.24-.13.61.61,0,0,1-.14-.11,1,1,0,0,1-.17-.48.67.67,0,0,1,.17-.5v-6.82a.69.69,0,0,1,.21-.51,1,1,0,0,1,.49-.25.73.73,0,0,1,.54.09.78.78,0,0,1,.35.53,3.89,3.89,0,0,1,.09.47c0,.15,0,.33,0,.54v.7c0,.26,0,.59,0,1l.24-.13.26-.12a2.15,2.15,0,0,1,.8-.21,2.81,2.81,0,0,1,.82,0,2.32,2.32,0,0,1,.76.32,2.07,2.07,0,0,1,.58.6,3.64,3.64,0,0,1,.43,1.24,4.76,4.76,0,0,1,0,1.41,3.71,3.71,0,0,1-.47,1.29,2.12,2.12,0,0,1-1,.89,5,5,0,0,1-.82.29A4.82,4.82,0,0,1,64.88,171.66Zm-.83-3.4v1.59s0,0,0,0l.06,0a1.81,1.81,0,0,0,2.06-.54,2.7,2.7,0,0,0,.2-1,3.92,3.92,0,0,0-.18-1,.35.35,0,0,0-.22-.21,1.69,1.69,0,0,1-.27-.11.7.7,0,0,0-.46.08,2.66,2.66,0,0,0-.47.3,2.52,2.52,0,0,0-.41.39c-.13.14-.22.26-.29.35Z" transform="translate(-46.25 -162.6)"/><path class="cls-1" d="M74.86,170.28a.87.87,0,0,1,.14.4,1.07,1.07,0,0,1-.06.44.76.76,0,0,1-.24.34.6.6,0,0,1-.43.12.85.85,0,0,1-.55-.24,2.68,2.68,0,0,1-.4-.48,3,3,0,0,1-1.07.59,2.36,2.36,0,0,1-1.08.08,2.28,2.28,0,0,1-1-.45,2.77,2.77,0,0,1-.79-1,3,3,0,0,1-.32-1.23c0-.45,0-.88,0-1.29,0-.14,0-.28,0-.41l0-.43c0-.12,0-.23,0-.34a2.85,2.85,0,0,1,0-.31,1.11,1.11,0,0,1,.08-.3.91.91,0,0,1,.18-.27.61.61,0,0,1,.38-.21.83.83,0,0,1,.44,0,.92.92,0,0,1,.35.24.66.66,0,0,1,.17.41,10.33,10.33,0,0,1,0,1.36,7.61,7.61,0,0,0,0,1.35,2.23,2.23,0,0,0,.17.65.9.9,0,0,0,.44.48.71.71,0,0,0,.62,0,1.66,1.66,0,0,0,.51-.36l.18-.24a1.29,1.29,0,0,1,.19-.21c0-.31-.06-.62-.07-.93v-.93c0-.17,0-.35,0-.55a2.62,2.62,0,0,1,.11-.57,1.4,1.4,0,0,1,.26-.48.83.83,0,0,1,.49-.26.53.53,0,0,1,.28,0,.7.7,0,0,1,.25.15.76.76,0,0,1,.25.35,1.25,1.25,0,0,1,.07.43,3.67,3.67,0,0,1,0,.46,3.34,3.34,0,0,0-.05.43c0,.24,0,.51,0,.78a5.62,5.62,0,0,0,0,.82,3.54,3.54,0,0,0,.15.8A2.27,2.27,0,0,0,74.86,170.28Z" transform="translate(-46.25 -162.6)"/><path class="cls-1" d="M76.13,174.08a1,1,0,0,1-.24-.57A.85.85,0,0,1,76,173a.75.75,0,0,1,.42-.29.77.77,0,0,1,.6.08,1.25,1.25,0,0,0,.27.15l.33.16a1.49,1.49,0,0,0,.45.14,1.57,1.57,0,0,0,.48,0,1.87,1.87,0,0,0,.69-.15.78.78,0,0,0,.36-.33,1.28,1.28,0,0,0,.12-.51c0-.19,0-.42,0-.67a4.25,4.25,0,0,1-.85.22,2.81,2.81,0,0,1-.87,0,2.47,2.47,0,0,1-1.44-.62,3,3,0,0,1-.82-1.23,3.72,3.72,0,0,1-.22-1.53,4.15,4.15,0,0,1,.38-1.51,2.92,2.92,0,0,1,.55-.73,3,3,0,0,1,1.67-.85,2.13,2.13,0,0,1,.91.08l.49.19a2.32,2.32,0,0,1,.47.24.84.84,0,0,1,.59-.23.71.71,0,0,1,.57.32l.12.18a.32.32,0,0,1,.07.19c0,.95,0,1.89,0,2.83s0,1.89,0,2.83a3.57,3.57,0,0,1-.15,1.06,2.59,2.59,0,0,1-.46.87,2.44,2.44,0,0,1-.76.62,2.81,2.81,0,0,1-1,.3l-.6,0a2.52,2.52,0,0,1-.6-.07,3.33,3.33,0,0,1-.81-.26c-.26-.13-.52-.26-.78-.41Zm1.56-4a1.66,1.66,0,0,0,1.08.18,2.77,2.77,0,0,0,1-.44v-2.11a2.2,2.2,0,0,0-.75-.54,1.72,1.72,0,0,0-.87-.09l-.17.1-.18.08a2.74,2.74,0,0,0-.43.61,1.75,1.75,0,0,0-.17.61,2,2,0,0,0,0,.64,5,5,0,0,0,.21.71.71.71,0,0,0,.12.13Z" transform="translate(-46.25 -162.6)"/><path class="cls-1" d="M91.7,165.47a.82.82,0,0,1,.39-.37.86.86,0,0,1,.47,0,.82.82,0,0,1,.41.24.82.82,0,0,1,.22.49,1.84,1.84,0,0,1-.08.64c-.08.27-.17.56-.28.85s-.22.57-.34.83-.21.48-.28.63c-.3.66-.63,1.31-1,2s-.71,1.27-1.09,1.89l-.18.36-.22.44c-.08.15-.15.29-.23.42a1.08,1.08,0,0,1-.23.29,1,1,0,0,1-.49.27.72.72,0,0,1-.46-.07A.87.87,0,0,1,88,174a1,1,0,0,1-.1-.54,1.17,1.17,0,0,1,.11-.31c.06-.13.13-.26.21-.4l.24-.39.19-.31.51-.87c.16-.29.32-.59.49-.88a8.63,8.63,0,0,1-1.52-1.62,7.26,7.26,0,0,1-1-2c-.05-.12-.09-.25-.14-.37a1,1,0,0,1,0-.39,1,1,0,0,1,.13-.4.81.81,0,0,1,.26-.29.69.69,0,0,1,.36-.13.8.8,0,0,1,.42.09.68.68,0,0,1,.27.26,2,2,0,0,1,.17.36c0,.13.08.26.11.39a3.07,3.07,0,0,0,.11.36,5.8,5.8,0,0,0,1.61,2.24,17.15,17.15,0,0,0,.69-1.6c.2-.53.38-1.08.54-1.63Z" transform="translate(-46.25 -162.6)"/><path class="cls-1" d="M98.32,169.54a1,1,0,0,1,.57,0,.73.73,0,0,1,.38.25.7.7,0,0,1,.12.42,1,1,0,0,1-.23.53,1.25,1.25,0,0,1-.48.38,4.65,4.65,0,0,1-.57.26,6.28,6.28,0,0,1-1.23.33,3.32,3.32,0,0,1-1.09,0,2.5,2.5,0,0,1-1-.39,3.06,3.06,0,0,1-.83-.82,2.53,2.53,0,0,1-.39-.81,4.27,4.27,0,0,1-.14-.94,4.22,4.22,0,0,1,.08-.94,3.45,3.45,0,0,1,.27-.84,2.42,2.42,0,0,1,.71-.84,4,4,0,0,1,1.09-.61,4,4,0,0,1,1.22-.26,2.28,2.28,0,0,1,1.1.19,1.78,1.78,0,0,1,.68.54,1.9,1.9,0,0,1,.39.76,1.79,1.79,0,0,1,0,.83,1.43,1.43,0,0,1-.43.76,2.94,2.94,0,0,1-.73.54c-.26.13-.54.25-.82.36a8,8,0,0,1-.87.25c-.29.07-.58.15-.85.24a1.26,1.26,0,0,0,.63.41,2.09,2.09,0,0,0,.75,0,3.34,3.34,0,0,0,.79-.22,6.53,6.53,0,0,0,.75-.36Zm-2.67-2.28a1,1,0,0,0-.45.43,2.12,2.12,0,0,0-.22.72l.78-.23c.29-.08.56-.16.81-.25a3.07,3.07,0,0,0,.65-.29c.18-.11.27-.22.27-.34a.76.76,0,0,0,0-.21.24.24,0,0,0-.14-.14,1.35,1.35,0,0,0-.77,0,2.31,2.31,0,0,0-.66.22Z" transform="translate(-46.25 -162.6)"/><path class="cls-1" d="M100.08,170.43a1,1,0,0,1,0-.85.71.71,0,0,1,.29-.28.8.8,0,0,1,.45-.07.79.79,0,0,1,.26.08,1.25,1.25,0,0,1,.22.16l.2.2a2,2,0,0,0,.68.44,4.54,4.54,0,0,0,.53.12.4.4,0,0,0,.3-.1.37.37,0,0,0,.15-.22.57.57,0,0,0,0-.29.38.38,0,0,0-.1-.24,1,1,0,0,0-.55-.29l-.6-.16a5.27,5.27,0,0,1-.78-.34,1.7,1.7,0,0,1-.62-.57,1.67,1.67,0,0,1-.3-.78,2.26,2.26,0,0,1,.06-.82,2.13,2.13,0,0,1,.38-.73,2.22,2.22,0,0,1,.64-.54,1.58,1.58,0,0,1,.61-.21,3,3,0,0,1,.67,0,3.17,3.17,0,0,1,.67.13,4.84,4.84,0,0,1,.61.22,1,1,0,0,1,.47.41,1,1,0,0,1,.16.54.75.75,0,0,1-.19.47.67.67,0,0,1-.52.19,1,1,0,0,1-.39-.07l-.35-.14a2.19,2.19,0,0,0-.52-.12.9.9,0,0,0-.45,0,.24.24,0,0,0-.12.09.32.32,0,0,0-.1.17.42.42,0,0,0,0,.22.22.22,0,0,0,.13.17,3.29,3.29,0,0,0,.68.26l.7.22a3.5,3.5,0,0,1,.65.3,1.48,1.48,0,0,1,.49.53,2.05,2.05,0,0,1,.3,1.06,2.21,2.21,0,0,1-.22,1,2.26,2.26,0,0,1-.66.82,1.91,1.91,0,0,1-1,.4,2.76,2.76,0,0,1-.81,0,3.25,3.25,0,0,1-.77-.28,3.92,3.92,0,0,1-1.24-1Z" transform="translate(-46.25 -162.6)"/><path class="cls-1" d="M105.55,171a1.28,1.28,0,0,1,.19-.54,1.11,1.11,0,0,1,.37-.32,1.07,1.07,0,0,1,.46-.11.93.93,0,0,1,.8.41,1,1,0,0,1,.16.54.87.87,0,0,1-.27.73,1,1,0,0,1-.65.27,1,1,0,0,1-.68-.22A1,1,0,0,1,105.55,171Zm.13-7.32a1.05,1.05,0,0,1,.34-.49.74.74,0,0,1,.44-.2.72.72,0,0,1,.45.14,1,1,0,0,1,.35.49c0,.46,0,.89,0,1.3s0,.8,0,1.18,0,.75,0,1.12,0,.75,0,1.14a.79.79,0,0,1-.27.62.81.81,0,0,1-.56.19.86.86,0,0,1-.54-.22.75.75,0,0,1-.25-.61V163.7Z" transform="translate(-46.25 -162.6)"/></svg>
