<svg xmlns="http://www.w3.org/2000/svg" width="1349.484" height="1029.557" viewBox="0 0 1349.484 1029.557">
  <g id="组_21" data-name="组 21" transform="translate(-284.277 -1626.311)">
    <path id="路径_22" data-name="路径 22" d="M1085.74,1636.644S1449.849,1980.65,1442.9,2041.76s-270.931,440.634-270.931,440.634L317.5,2347.309,148.363,2030.185Z" transform="translate(137 32)" fill="#ff6464"/>
    <g id="多边形_1" data-name="多边形 1" transform="matrix(0.788, -0.616, 0.616, 0.788, 1528.239, 1921.94)" fill="none">
      <path d="M40,0,80,69H0Z" stroke="none"/>
      <path d="M 40 5.981697082519531 L 5.206779479980469 66 L 74.79322052001953 66 L 40 5.981697082519531 M 40 0 L 80 69 L 0 69 L 40 0 Z" stroke="none" fill="#5100f8"/>
    </g>
    <g id="多边形_2" data-name="多边形 2" transform="matrix(0.788, -0.616, 0.616, 0.788, 1528.239, 1921.94)" fill="none">
      <path d="M40,0l8.2,41.285L80,69,40,55.43,0,69,31.8,41.285Z" stroke="none"/>
      <path d="M 40 15.39931106567383 L 34.74251937866211 41.86943817138672 L 34.54302597045898 42.87381362915039 L 33.77108001708984 43.54660034179688 L 13.42765808105469 61.27672576904297 L 39.03620147705078 52.58902740478516 L 40 52.26206588745117 L 40.96379852294922 52.58902740478516 L 66.57234191894531 61.27672576904297 L 46.22891998291016 43.54660034179688 L 45.45697402954102 42.87381362915039 L 45.25748062133789 41.86943817138672 L 40 15.39931106567383 M 40 0 L 48.20000076293945 41.28499984741211 L 80 69 L 40 55.43000030517578 L 0 69 L 31.79999923706055 41.28499984741211 L 40 0 Z" stroke="none" fill="#5100f8"/>
    </g>
    <line id="直线_2" data-name="直线 2" x2="124" y2="64" transform="translate(483.5 2500.5)" fill="none" stroke="#fa0" stroke-linecap="round" stroke-width="5"/>
    <ellipse id="椭圆_6" data-name="椭圆 6" cx="36" cy="38.5" rx="36" ry="38.5" transform="translate(496.716 2484.525) rotate(8)" fill="#ff6d6d"/>
    <g id="椭圆_5" data-name="椭圆 5" transform="translate(531.108 2500.048) rotate(8)" fill="#fff" stroke="#6934ff" stroke-width="6">
      <ellipse cx="36.5" cy="39.5" rx="36.5" ry="39.5" stroke="none"/>
      <ellipse cx="36.5" cy="39.5" rx="33.5" ry="36.5" fill="none"/>
    </g>
    <ellipse id="椭圆_3" data-name="椭圆 3" cx="37.5" cy="38.5" rx="37.5" ry="38.5" transform="translate(570.745 2521.108) rotate(8)" fill="#ff6d6d"/>
    <g id="椭圆_4" data-name="椭圆 4" transform="translate(608.108 2536.048) rotate(8)" fill="#fff" stroke="#6934ff" stroke-width="6">
      <ellipse cx="39.5" cy="41.5" rx="39.5" ry="41.5" stroke="none"/>
      <ellipse cx="39.5" cy="41.5" rx="36.5" ry="38.5" fill="none"/>
    </g>
    <path id="路径_24" data-name="路径 24" d="M394.051,2344.415s-129.9,45.993-60.289-28.591,103.174-52.208,124.306-105.66,358-297.092,278.446-352.408-76.448-175.272,148.546-41.021S1339.4,1922.4,1326.969,1882s-31.7-123.685,24.24-47.858-34.806,376.026-34.806,376.026-157.247,231.831,0,330.033,30.455,75.827,30.455,75.827-117.469-49.1-139.844,0-108.146,47.236-108.146,47.236" transform="translate(-27 -127)" fill="none" stroke="#5400ff" stroke-linecap="round" stroke-linejoin="round" stroke-width="4"/>
    <line id="直线_1" data-name="直线 1" x2="124" y2="64" transform="translate(652.5 2588.5)" fill="none" stroke="#fa0" stroke-linecap="round" stroke-width="5"/>
    <circle id="椭圆_8" data-name="椭圆 8" cx="4" cy="4" r="4" transform="translate(1584 1930)" fill="#5100f8"/>
    <g id="组_6" data-name="组 6" transform="translate(1175.399 1452.759)">
      <path id="减去_1" data-name="减去 1" d="M49.047,75.457h-22.1A26.927,26.927,0,0,1,0,48.508V0H22.1A26.927,26.927,0,0,1,49.047,26.949v4.667a26.909,26.909,0,0,0-3.041-.173,27.226,27.226,0,0,0-4.487.375c-.415.07-.833.15-1.241.238L24.872,35.387l1.68,9.528A26.978,26.978,0,0,0,49.047,66.887v8.57ZM22.637,7.546a9.7,9.7,0,1,0,6.86,2.841A9.638,9.638,0,0,0,22.637,7.546Z" transform="translate(239.295 238.933)" fill="#ff8e8e"/>
      <path id="路径_46" data-name="路径 46" d="M204.8,273.428a34.495,34.495,0,0,1,34.495-34.495v34.495Z" transform="translate(0 0)" fill="#f25e5e"/>
      <path id="路径_47" data-name="路径 47" d="M331.093,457.387a14.552,14.552,0,0,0,14.552,14.552V457.387H331.093Z" transform="translate(-106.351 -183.959)" fill="#511df8"/>
      <path id="路径_48" data-name="路径 48" d="M744.646,716.8a10.779,10.779,0,0,1-10.78,10.78V716.8Z" transform="translate(-445.525 -402.41)" fill="#511df8"/>
      <path id="路径_49" data-name="路径 49" d="M629.121,460.272A25.022,25.022,0,0,0,598.9,435.8l-18.128,3.849.79,4.476a26.948,26.948,0,0,0,36.136,20.5l11.42-4.352Z" transform="translate(-316.607 -165.319)" fill="#f25e5e"/>
      <ellipse id="椭圆_10" data-name="椭圆 10" cx="2.5" cy="3" rx="2.5" ry="3" transform="translate(258.601 253.241)" fill="#5100f8"/>
    </g>
  </g>
</svg>
