<svg xmlns="http://www.w3.org/2000/svg" width="1615.473" height="451.447" viewBox="0 0 1615.473 451.447">
  <path d="M164.83,1175.623c11.312-8.08,257.748-223.813,282.8-159.982s-86.455,120.39-29.088,113.118,54.943-97.766,121.2-78.375c58.768,17.2,56.974,251.515,197.707,304.75,91.424,34.509,164.3,42.3,187.128,42.388,202,.808,209.844-79.694,217.923-80.5s68.679-13.736,210.885,34.744c115.044,39.219,244.9,113.6,264.838,94.706,1.535-1.452-.207-10.243-6.282-21.987-47.562-91.952-41.463-404.768,17.911-375.929.507.246,1.173.608,1.846,1.014.259.154.753.474,1.252.817,62.215,42.823,135.742,96.151,135.742,96.151l3.232,2.424" transform="translate(-160.645 -1000.812)" fill="none" stroke="#ff6d6d" stroke-linecap="round" stroke-linejoin="round" stroke-width="6"/>
</svg>
