<svg xmlns="http://www.w3.org/2000/svg" viewBox="0 0 96 96"><defs><style>.cls-1{fill:#ff6f61;}.cls-2{fill:#fff;}.cls-3{fill:#ff5261;}.cls-4{fill:#ff6700;}</style></defs><title>logo</title><polygon class="cls-1" points="41.23 33.69 40.48 35.52 43.34 39.89 45.45 36.79 41.23 33.69"/><path d="M36.63,33.74h0Z"/><path d="M49.46,32.12a8.19,8.19,0,0,1-1,0A14.67,14.67,0,0,0,40,24.76a9.37,9.37,0,0,1-.17-1.2,9.28,9.28,0,0,1,8.11-10.19,9.08,9.08,0,0,1,9.66,8.56A9.28,9.28,0,0,1,49.46,32.12Z"/><path class="cls-2" d="M49.46,32.12a8.19,8.19,0,0,1-1,0A14.67,14.67,0,0,0,40,24.76a9.37,9.37,0,0,1-.17-1.2,9.28,9.28,0,0,1,8.11-10.19,9.08,9.08,0,0,1,9.66,8.56A9.28,9.28,0,0,1,49.46,32.12Z"/><ellipse cx="49.43" cy="22.58" rx="2.79" ry="2.94"/><path d="M25.62,47.83a11.83,11.83,0,0,1-1.68.09C24.48,47.9,25,47.88,25.62,47.83Z"/><path d="M36.63,33.73h0Z"/><path d="M38.78,33.9l-.22,0a10.4,10.4,0,0,0-1.91-.13h.15a5.77,5.77,0,0,1,1.71.08l.24.07Z"/><path class="cls-1" d="M94.24,21.54A35.79,35.79,0,0,1,90.06,34a9.34,9.34,0,0,0-1.16,6.47,46.69,46.69,0,0,1-3.76,26.22A45,45,0,0,1,71.17,84,44.67,44.67,0,0,1,57.46,91.2a40.52,40.52,0,0,1-23.91.12C22,87.78,13.09,80.43,7.18,69.2A48.56,48.56,0,0,1,3.6,60.46v0c-.23-.76-.43-1.52-.62-2.29a48.16,48.16,0,0,1-.92-17.48c.15-1.18.33-2.34.56-3.48A70.4,70.4,0,0,1,7.81,24L10,18.76,9.32,21a2.6,2.6,0,0,0,.15-.28l.22-.41c0,.45-.06.89-.08,1.32h0a0,0,0,0,0,0,0c-.32,1-4.32,14.77,1.41,22.72,2.44,3.38,6.64,5.71,13.64,5.58h0l1.82-.09h0c.66,0,1.3-.12,1.92-.2h0a25.89,25.89,0,0,0,6.09-1.6l.16-.07h0a21.65,21.65,0,0,0,3.12-1.58.05.05,0,0,0,0,0,16.28,16.28,0,0,0,1.37-.91h0l.32-.29h0c.11-.13.26-.29.44-.51A17.63,17.63,0,0,0,42.42,41a6.38,6.38,0,0,0,.33-.82c.88-2.45.6-5.1-3.63-6.24L39,33.74l-.37,0-.22,0H37.8a12,12,0,0,0-1.43.06h0a9.78,9.78,0,0,0-4.11,1,9.44,9.44,0,0,1-1.21.43s0,0,0,0a14.47,14.47,0,0,1-.62-1.94A26.24,26.24,0,0,1,30,30.34a25.79,25.79,0,0,1,2.67-12.95c-.29-1.1-1.5-5.73-.92-5.4S33,15,33.26,16.3a.53.53,0,0,1,.06-.1l.06-.13,0,0,0-.08h0c0-.78-.08-8.55.58-8s.51,4.4.47,6.26l.64-.89a25.18,25.18,0,0,1,8.92-7.62c7.14-3.59,14.43-3.81,21.52-.07a44.11,44.11,0,0,1,5.79,3.81c3.8,2,8.18,4,9.92,3.88,2.64-.18-.27,1.48-1.59,2.18a32.62,32.62,0,0,0,5.87,3.19,13.24,13.24,0,0,0,7,.84C94.27,19.3,94.54,19.74,94.24,21.54Z"/><path class="cls-2" d="M49.47,32.12a8.41,8.41,0,0,1-1,0A14.67,14.67,0,0,0,40,24.76a9.37,9.37,0,0,1-.17-1.2,9.28,9.28,0,0,1,8.11-10.19,9.08,9.08,0,0,1,9.66,8.56A9.28,9.28,0,0,1,49.47,32.12Z"/><path d="M41.62,36.17c0,.08,0,.16.05.25a3.64,3.64,0,0,0-.88-.45C41.07,36,41.35,36.09,41.62,36.17Z"/><path d="M41.85,36.55h0Z"/><path d="M37.27,40.91l-.09.05.12-.06Z"/><path class="cls-3" d="M43.07,38.8a4.9,4.9,0,0,0-.21-1.3,5.36,5.36,0,0,0-.33-.9,6.39,6.39,0,0,0-.9-1.43l-.05,0a6.58,6.58,0,0,0-1.23-1.13L40.22,34a6.26,6.26,0,0,0-.61-.21l-.42-.11h0l-.17,0-.55-.12h-.34a10.26,10.26,0,0,0-1.52.07l.28.11h-.4l.13,0h0a8.49,8.49,0,0,1,.88.49c1.54,1,3.83,3.18-.22,6.38l.38-.09-.31.24L37,41,37,41s0,0,0,0l.28-.18c-.54.28-1.13.54-1.71.77s-1,.4-1.54.57c-1.35.44-2.43.69-2.51.71L31.2,43l-.86.23-.51.11a22.91,22.91,0,0,1-4.71.5c-4.81,0-11-1.65-13.89-9.33h0a24.15,24.15,0,0,1-1.3-5.54v0a41.26,41.26,0,0,1-.21-7.28h0c0-.43,0-.87.09-1.32,0-.21,0-.41,0-.62a0,0,0,0,1,0,0,5,5,0,0,1-.13.51c0,.06,0,.11,0,.18h0a.73.73,0,0,0-.06.21s0,.07,0,.11a.5.5,0,0,0,0,.13,2.1,2.1,0,0,0-.06.24c0,.09-.05.19-.07.3s0,.24-.08.37v0s0,0,0,0C9,22.83,5,36.56,10.75,44.51c2.44,3.38,6.63,5.72,13.62,5.57h0c.59,0,1.2,0,1.83-.08h0c.65,0,1.28-.12,1.89-.2h0l.19,0a20.1,20.1,0,0,0,7.35-1.63l.13-.06a13.38,13.38,0,0,0,3.67-2.44h0a11.09,11.09,0,0,0,.9-.94,10.23,10.23,0,0,0,.64-.81,3.53,3.53,0,0,0,.24-.34,8.5,8.5,0,0,0,.47-.78v0A5.83,5.83,0,0,0,43.07,38.8Zm-.73,2.05-.08,0s0,0,0,0l.09,0Z"/><path class="cls-4" d="M30,30.34s0,3.37,1,4.9a7.6,7.6,0,0,0,1.22-.44C32.83,34.52,30.06,31.73,30,30.34Z"/><ellipse class="cls-1" cx="48.69" cy="22.07" rx="3.71" ry="3.92"/><path class="cls-3" d="M43.08,39a10.7,10.7,0,0,1-3.9,7.2v-2Z"/><path class="cls-3" d="M43.12,39.33c0,2.51-1.15,4.64-2.74,5.37.25-.28.45-.55.65-.81l.23-.34a8.5,8.5,0,0,0,.47-.78v0a5.83,5.83,0,0,0,1.33-4,4.9,4.9,0,0,0-.21-1.3,5.36,5.36,0,0,0-.33-.9,6.39,6.39,0,0,0-.9-1.43l-.05,0a6.28,6.28,0,0,0-1.23-1.13L40.22,34c-.2-.08-.4-.14-.61-.21l-.42-.11C41.36,33.69,43.12,36.21,43.12,39.33Z"/><path class="cls-3" d="M42.35,42.85s-1.53,3.39-6.55,5.23.85-3.81.85-3.81L39.35,42Z"/><path class="cls-3" d="M37.29,40.61a11.34,11.34,0,0,1-1.45.86,6.47,6.47,0,0,0,.8.35l1.3-1s0-.35,0-.35.05-.06.05-.06Z"/><path class="cls-1" d="M9.09,20.91l1.34-3.3s-.64,2.77-.65,3a.27.27,0,0,1-.25.27Z"/><path class="cls-1" d="M9.77,20.7s-.32.57-.34.66S9.11,21,9.11,21l.31-.23Z"/></svg>
