<svg xmlns="http://www.w3.org/2000/svg" viewBox="0 0 271.13 50.49"><defs><style>.cls-1{fill:#222;}.cls-2{fill:#fff;}.cls-3{fill:#313131;}.cls-4{fill:none;stroke:#000;stroke-miterlimit:10;stroke-width:0.75px;}.cls-5{fill:#ff6700;}</style></defs><title>未标题-1</title><g id="组_7" data-name="组 7"><path id="路径_78" data-name="路径 78" class="cls-1" d="M23.4,17.24l-.44,1,1.69,2.44L25.89,19Z" transform="translate(0)"/><path id="路径_79" data-name="路径 79" d="M55.53,25.25h0v0" transform="translate(0)"/><path id="路径_80" data-name="路径 80" d="M22.73,17.58l-.26-.1h0a2.31,2.31,0,0,0-.52-.12l-.12,0a9.21,9.21,0,0,0-1.29-.06h.26a3.45,3.45,0,0,1,1,0,2.75,2.75,0,0,1,.93.26" transform="translate(0)"/><path id="路径_81" data-name="路径 81" d="M28.27,16.36a5.82,5.82,0,0,1-.59,0,8.57,8.57,0,0,0-5-4.14c0-.23-.08-.45-.1-.68a5.27,5.27,0,1,1,5.71,4.8" transform="translate(0)"/><path id="路径_82" data-name="路径 82" class="cls-2" d="M28.27,16.36a5.82,5.82,0,0,1-.59,0,8.57,8.57,0,0,0-5-4.14c0-.23-.08-.45-.1-.68a5.27,5.27,0,1,1,5.71,4.8" transform="translate(0)"/><path id="路径_83" data-name="路径 83" d="M29.89,10.87a1.65,1.65,0,1,1-1.79-1.5,1.65,1.65,0,0,1,1.79,1.5h0" transform="translate(0)"/><path id="路径_84" data-name="路径 84" d="M14.17,25.16a6.57,6.57,0,0,1-1,.05c.32,0,.65,0,1-.05" transform="translate(0)"/><path id="路径_85" data-name="路径 85" d="M20.68,17.26h0" transform="translate(0)"/><path id="路径_86" data-name="路径 86" d="M22,17.36l-.13,0a7.07,7.07,0,0,0-1.13-.07h.09a3.79,3.79,0,0,1,1,0l.14,0h0" transform="translate(0)"/><path id="路径_87" data-name="路径 87" class="cls-3" d="M54.73,10.43a19.21,19.21,0,0,1-2.47,7A5,5,0,0,0,51.58,21a25,25,0,0,1-2.23,14.69,25.38,25.38,0,0,1-8.25,9.7A26.71,26.71,0,0,1,33,49.46,25.69,25.69,0,0,1,3.27,37.14a26.57,26.57,0,0,1-2.12-4.9,0,0,0,0,0,0,0C1,31.79.89,31.36.78,30.93a25.67,25.67,0,0,1-.54-9.8q.14-1,.33-1.95A44.41,44.41,0,0,1,4.63,10l.12-.22c0,.25,0,.5,0,.73h0v0c-.18.58-2.55,8.27.84,12.73,1.44,1.89,3.92,3.2,8.06,3.12h0l1.08-.05h0q.59,0,1.14-.12h0a15,15,0,0,0,3.6-.9l.1,0h0a12.59,12.59,0,0,0,1.85-.89h0a8,8,0,0,0,.81-.51h0l.18-.16h0l.26-.29a9.43,9.43,0,0,0,1.44-2.1,3.62,3.62,0,0,0,.2-.45c.52-1.38.35-2.86-2.15-3.5l-.1-.09-.21,0h-.47a7.86,7.86,0,0,0-.84,0h0a6.05,6.05,0,0,0-2.44.6c-.23.09-.47.17-.71.24v0A8.09,8.09,0,0,1,17,17a13,13,0,0,1-.2-1.63A13.77,13.77,0,0,1,18.36,8.1c-.18-.62-.89-3.21-.55-3a7.35,7.35,0,0,1,.88,2.41l0-.06a.25.25,0,0,1,0-.07v0l0,0h0c0-.44,0-4.8.34-4.47s.3,2.47.28,3.51c.12-.17.25-.33.38-.5a14.68,14.68,0,0,1,5.27-4.27,13.89,13.89,0,0,1,12.72,0,27,27,0,0,1,3.43,2.14c2.24,1.1,4.83,2.24,5.86,2.17,1.56-.1-.17.83-1,1.22a19.73,19.73,0,0,0,3.48,1.79,8.19,8.19,0,0,0,4.13.47c1-.14,1.17.1,1,1.11" transform="translate(0)"/><path id="路径_88" data-name="路径 88" class="cls-2" d="M28.27,16.36a5.82,5.82,0,0,1-.59,0,8.57,8.57,0,0,0-5-4.14,5.06,5.06,0,0,1-.1-.68,5.27,5.27,0,1,1,5.71,4.8" transform="translate(0)"/><path id="路径_89" data-name="路径 89" class="cls-1" d="M72.27,35.55c-5,0-8.13-3-8.13-8.07,0-7.4,5.57-14.53,13.31-14.53,5,0,8.3,2.65,8.3,7.86,0,7.67-5.41,14.74-13.48,14.74m4.82-20.94c-5.55,0-8.07,9-8.07,13.4,0,2.56.66,5.84,3.85,5.84,5.44,0,8-9.42,8-13.77,0-2.52-.66-5.47-3.78-5.47" transform="translate(0)"/><path id="路径_90" data-name="路径 90" class="cls-1" d="M103.51,35.11h-3.15a.55.55,0,0,1-.55-.55.41.41,0,0,1,0-.11l1.91-9.09a.55.55,0,0,0-.43-.65l-.11,0H93.42a.56.56,0,0,0-.54.45l-2,9.53a.54.54,0,0,1-.54.44H87.22a.55.55,0,0,1-.55-.55s0-.07,0-.11L91,13.92a.55.55,0,0,1,.54-.44h3.12a.55.55,0,0,1,.55.55s0,.08,0,.12L93.49,22.3a.55.55,0,0,0,.43.66h7.87a.55.55,0,0,0,.54-.44l1.78-8.61a.55.55,0,0,1,.54-.44h3.15a.55.55,0,0,1,.55.55.49.49,0,0,1,0,.12l-4.28,20.53a.57.57,0,0,1-.54.44" transform="translate(0)"/><path id="路径_91" data-name="路径 91" class="cls-1" d="M123.6,23a.56.56,0,0,0-.3.72.59.59,0,0,0,.31.31,4.09,4.09,0,0,1,3,3.88c0,4.52-3.88,7.63-8.23,7.63a8.77,8.77,0,0,1-3.43-.67.55.55,0,0,1-.33-.43l0-.2a.55.55,0,0,1,.47-.62h.16a12.32,12.32,0,0,0,1.82.17c2.89,0,4.68-3.56,4.68-6.11,0-3.19-2.93-3.23-5.35-3.22a.54.54,0,0,0-.54.44l-2,9.77a.56.56,0,0,1-.55.44h-3.14a.55.55,0,0,1-.56-.55.36.36,0,0,1,0-.11l4.31-20.54a.56.56,0,0,1,.53-.44c2,0,4-.06,6-.06,2.66,0,7.1.17,7.1,3.78A6.48,6.48,0,0,1,123.6,23m-4.11-8.13h-1.14a.56.56,0,0,0-.54.44l-1.46,7a.56.56,0,0,0,.42.66h1.16a5,5,0,0,0,5-4.9c0-.13,0-.25,0-.38,0-2.12-1.53-2.82-3.42-2.82" transform="translate(0)"/><path id="路径_92" data-name="路径 92" class="cls-1" d="M146.84,27.25c-1.16,5.54-4.48,8.33-10.15,8.33-6.4,0-7.6-3.42-6.48-8.8l2.73-12.86a.55.55,0,0,1,.54-.44H137a.55.55,0,0,1,.55.55.37.37,0,0,1,0,.11l-2.85,13.67c-.56,2.69-.53,6,3.22,6s5.44-3.32,6.11-6.57l2.76-13.3a.56.56,0,0,1,.54-.45H149a.56.56,0,0,1,.55.56.41.41,0,0,1,0,.11Z" transform="translate(0)"/><path id="路径_93" data-name="路径 93" class="cls-1" d="M164.27,27.94l-1.18,5.53a.55.55,0,0,1-.57.44c-4.3-.19-7.39-2.91-7.39-7.42,0-6.44,4.55-11.42,11.09-11.42a16.61,16.61,0,0,1,3.14.36A.55.55,0,0,0,170,15a.49.49,0,0,0,0-.12v-.73a.56.56,0,0,0-.39-.52A20.17,20.17,0,0,0,164,13c-7.13,0-13.93,6.8-13.93,13.94,0,5.34,4.11,8.63,9.25,8.63,2.46,0,4.91-.15,7.37-.39a.56.56,0,0,0,.48-.44l1.36-6.51.3-1.46a.55.55,0,0,0-.43-.65H165.1a.55.55,0,0,0-.54.44Z" transform="translate(0)"/><path id="路径_94" data-name="路径 94" d="M23.63,18.63l0,.14a1.92,1.92,0,0,0-.52-.25,4.31,4.31,0,0,1,.49.11" transform="translate(0)"/><path id="路径_95" data-name="路径 95" d="M23.77,18.84h0Z" transform="translate(0)"/><path id="路径_96" data-name="路径 96" d="M21.06,21.28l0,0,.06,0h0" transform="translate(0)"/><path id="路径_97" data-name="路径 97" d="M24.49,20.1a3.09,3.09,0,0,0-.12-.73,4.34,4.34,0,0,0-.2-.5,3.63,3.63,0,0,0-.54-.8h0a4,4,0,0,0-.73-.63l-.08,0-.36-.11-.25-.07h0l-.1,0-.33-.06h-.2a6.78,6.78,0,0,0-.9,0l.16.06h-.23a3.45,3.45,0,0,1,.61.3c.91.54,2.26,1.78-.13,3.58l.22-.05-.18.13-.19.13-.05,0,0,0,.16-.1a9,9,0,0,1-1,.43c-.31.12-.62.22-.91.32-.8.25-1.43.39-1.48.4l-.19.05-.51.12-.3.07a15.33,15.33,0,0,1-2.78.28C11,22.9,7.36,22,5.67,17.67h0a13.28,13.28,0,0,1-.77-3.1v0a23.17,23.17,0,0,1-.12-4.08h0c0-.24,0-.48.05-.73l0-.35h0a2.35,2.35,0,0,0-.08.29l0,.1h0l0,.11s0,0,0,.06,0,.05,0,.08a.65.65,0,0,1,0,.13c0,.05,0,.1,0,.17s0,.14-.05.21h0v0c-.19.58-2.56,8.28.84,12.73,1.44,1.9,3.92,3.2,8.05,3.13h0l1.07-.05h0c.39,0,.76-.07,1.12-.12h.12a12.44,12.44,0,0,0,4.35-.91l.08,0a7.92,7.92,0,0,0,2.17-1.36h0a6.75,6.75,0,0,0,.54-.53c.14-.15.26-.31.38-.45s.09-.13.13-.19.19-.29.28-.44h0a3.14,3.14,0,0,0,.78-2.21m-1.73-.67a.11.11,0,0,0,0-.05h.1l0,.05-.13.19.06-.18m-.08-1.85h0a0,0,0,0,1,0,0Zm.43,1.82,0-.05.74-.06h.06a.08.08,0,0,1,0,.05Zm.95,1.84h0v0l.05,0h0" transform="translate(0)"/><path id="路径_98" data-name="路径 98" class="cls-4" d="M24.49,20.1a3.09,3.09,0,0,0-.12-.73,4.34,4.34,0,0,0-.2-.5,3.63,3.63,0,0,0-.54-.8h0a4,4,0,0,0-.73-.63l-.08,0-.36-.11-.25-.07h0l-.1,0-.33-.06h-.2a6.78,6.78,0,0,0-.9,0l.16.06h-.23a3.45,3.45,0,0,1,.61.3c.91.54,2.26,1.78-.13,3.58l.22-.05-.18.13-.19.13-.05,0,0,0,.16-.1a9,9,0,0,1-1,.43c-.31.12-.62.22-.91.32-.8.25-1.43.39-1.48.4l-.19.05-.51.12-.3.07a15.33,15.33,0,0,1-2.78.28C11,22.9,7.36,22,5.67,17.67h0a13.28,13.28,0,0,1-.77-3.1v0a23.17,23.17,0,0,1-.12-4.08h0c0-.24,0-.48.05-.73l0-.35h0a2.35,2.35,0,0,0-.08.29l0,.1h0l0,.11s0,0,0,.06,0,.05,0,.08a.65.65,0,0,1,0,.13c0,.05,0,.1,0,.17s0,.14-.05.21h0v0c-.19.58-2.56,8.28.84,12.73,1.44,1.9,3.92,3.2,8.05,3.13h0l1.07-.05h0c.39,0,.76-.07,1.12-.12h.12a12.44,12.44,0,0,0,4.35-.91l.08,0a7.92,7.92,0,0,0,2.17-1.36h0a6.75,6.75,0,0,0,.54-.53c.14-.15.26-.31.38-.45s.09-.13.13-.19.19-.29.28-.44h0A3.22,3.22,0,0,0,24.49,20.1Zm-1.74-.66s0,0,0-.06h.1l0,.06-.14.19A.64.64,0,0,0,22.75,19.44Zm-.07-1.85h0a0,0,0,0,1,0,0Zm.42,1.82v-.05l.74-.06h.06s0,0,0,.06Zm1,1.84h0v0h0Z" transform="translate(0)"/><path id="路径_99" data-name="路径 99" class="cls-5" d="M16.77,15.36a6.85,6.85,0,0,0,.58,2.75,4.34,4.34,0,0,0,.72-.24c.36-.16-1.27-1.73-1.3-2.5" transform="translate(0)"/><path id="路径_100" data-name="路径 100" class="cls-1" d="M30,10.73a2.19,2.19,0,1,1-2.19-2.2A2.19,2.19,0,0,1,30,10.73h0" transform="translate(0)"/><path id="路径_101" data-name="路径 101" class="cls-1" d="M4.93,8.87l-.4,1.31L4.21,11l-.41.89-.17-.07Z" transform="translate(0)"/><path id="路径_102" data-name="路径 102" d="M24.49,20.19a5.86,5.86,0,0,1-2.3,4V23.09Z" transform="translate(0)"/><path id="路径_103" data-name="路径 103" d="M24.52,20.4a3.23,3.23,0,0,1-1.62,3,1.92,1.92,0,0,1-.71.15,2.45,2.45,0,0,1-2.14-1.9,9,9,0,0,0,1-.43l-.16.1,0,0,.05,0,.19-.13.18-.13-.22.05c2.39-1.79,1-3,.13-3.58a1.83,1.83,0,0,1,1-.3h0c1.29,0,2.33,1.42,2.33,3.16" transform="translate(0)"/><path id="路径_104" data-name="路径 104" class="cls-4" d="M24.52,20.4a3.23,3.23,0,0,1-1.62,3,1.92,1.92,0,0,1-.71.15,2.45,2.45,0,0,1-2.14-1.9,9,9,0,0,0,1-.43l-.16.1,0,0,.05,0,.19-.13.18-.13-.22.05c2.39-1.79,1-3,.13-3.58a1.83,1.83,0,0,1,1-.3h0C23.48,17.24,24.52,18.66,24.52,20.4Z" transform="translate(0)"/><path id="路径_105" data-name="路径 105" d="M24.06,22.37a6.6,6.6,0,0,1-3.87,2.93c-3,1,.5-2.13.5-2.13l1.59-1.25Z" transform="translate(0)"/></g><path class="cls-1" d="M194.37,35.64a13.21,13.21,0,0,1-4-.68.82.82,0,0,1-.57-.67l-.12-.77a12.87,12.87,0,0,0,2.78.3c6.06,0,8.9-7.86,8.9-12.93,0-3.83-1.87-6.08-5.82-6.08h-1.7a.84.84,0,0,0-.82.67l-3.94,19a.84.84,0,0,1-.82.67h-2.6a.84.84,0,0,1-.83-1l4.24-20.23a.84.84,0,0,1,.82-.67h3.6c5.46,0,13,0,13,7.39C206.46,27.34,201.81,35.64,194.37,35.64Z" transform="translate(0)"/><path class="cls-1" d="M217.87,35.61c-5.09,0-8.2-3-8.2-8.17,0-7.49,5.63-14.72,13.43-14.72,5.08,0,8.37,2.69,8.37,8C231.47,28.45,226,35.61,217.87,35.61Zm4.86-21.21c-5.59,0-8.14,9.14-8.14,13.58,0,2.58.67,5.91,3.89,5.91,5.49,0,8.06-9.54,8.06-13.94C226.54,17.39,225.87,14.4,222.73,14.4Z" transform="translate(0)"/><path class="cls-1" d="M250.88,14.87c-6.63,0-11.12,5.08-11.12,11.6,0,4.7,2.72,7,7.3,7a17.83,17.83,0,0,0,4.05-.51l-.59,1.42a.94.94,0,0,1-.63.55,24.82,24.82,0,0,1-5.94.66c-5.29,0-9.21-3.6-9.21-9,0-7.32,6.66-13.84,13.93-13.84a21.2,21.2,0,0,1,5.43.57.93.93,0,0,1,.67.89h0a.93.93,0,0,1-1.09.94A15.65,15.65,0,0,0,250.88,14.87Z" transform="translate(0)"/><path class="cls-1" d="M267.05,15c-1.95,0-4.46.94-4.46,3.29,0,2.93,7.54,4.44,7.54,9.55,0,4.84-5.19,7.66-9.51,7.66a19.67,19.67,0,0,1-5.64-.9.65.65,0,0,1-.45-.62v-.56a.65.65,0,0,1,.79-.63,22.62,22.62,0,0,0,4.66.39c2.48,0,5.56-1,5.56-4,0-3.7-7.57-5.24-7.57-9.54,0-4.1,3.92-6.92,7.77-6.92a14.29,14.29,0,0,1,5,.87.68.68,0,0,1,.42.62v.55a.65.65,0,0,1-.79.64A14.45,14.45,0,0,0,267.05,15Z" transform="translate(0)"/></svg>
