<svg xmlns="http://www.w3.org/2000/svg" viewBox="0 0 497.26 147.71"><defs><style>.cls-1{fill:#222;}.cls-2{fill:#fff;}.cls-3{stroke:#000;stroke-miterlimit:10;stroke-width:0.75px;}.cls-4{fill:#ff6700;}</style></defs><title>ohbug logo</title><polygon class="cls-1" points="68.44 50.4 67.14 53.41 72.08 60.56 75.72 55.48 68.44 50.4"/><path d="M238.78,100h0l0,.06Z" transform="translate(-76.37 -26.15)"/><path d="M142.83,77.53c-.24-.1-.5-.19-.75-.27a.05.05,0,0,0,0,0,6.86,6.86,0,0,0-1.53-.37l-.33,0a24.06,24.06,0,0,0-3.78-.19h.75a10.34,10.34,0,0,1,2.94.14A7.76,7.76,0,0,1,142.83,77.53Z" transform="translate(-76.37 -26.15)"/><path d="M159,74a16.29,16.29,0,0,1-1.71.06c-4.31-8.79-13.46-11.75-14.68-12.12A15.42,15.42,0,1,1,159,74Z" transform="translate(-76.37 -26.15)"/><path class="cls-2" d="M159,74a16.29,16.29,0,0,1-1.71.06c-4.31-8.79-13.46-11.75-14.68-12.12A15.42,15.42,0,1,1,159,74Z" transform="translate(-76.37 -26.15)"/><circle cx="82.6" cy="32.2" r="4.82"/><path d="M129.33,93.89Z" transform="translate(-76.37 -26.15)"/><path d="M117.81,99.72a21.76,21.76,0,0,1-2.9.15C115.84,99.84,116.81,99.8,117.81,99.72Z" transform="translate(-76.37 -26.15)"/><path d="M136.85,76.62h0Z" transform="translate(-76.37 -26.15)"/><path d="M140.57,76.89l-.39-.06a18.75,18.75,0,0,0-3.29-.21h.26a10.34,10.34,0,0,1,2.94.14,3.31,3.31,0,0,1,.42.12Z" transform="translate(-76.37 -26.15)"/><path class="cls-1" d="M236.45,56.64c-1.28,7.2-3.36,14.17-7.22,20.36a14.63,14.63,0,0,0-2,10.6,72.91,72.91,0,0,1-6.49,43A74.47,74.47,0,0,1,196.57,159a78.17,78.17,0,0,1-23.72,11.84,73.71,73.71,0,0,1-41.32.21c-20-5.8-35.39-17.86-45.6-36.26a76.7,76.7,0,0,1-6.19-14.32s0,0,0-.07c-.39-1.24-.75-2.49-1.07-3.74A75.06,75.06,0,0,1,77.06,88q.39-2.91,1-5.7c2.53-9.84,9.2-22.2,11.87-26.91l.37-.67c-.06.73-.11,1.45-.14,2.16h0s0,0,0,.06c-.54,1.69-7.47,24.2,2.45,37.23,4.21,5.54,11.47,9.36,23.56,9.13h0c1,0,2.06-.07,3.14-.14h0c1.13-.08,2.24-.19,3.31-.33h0a45.8,45.8,0,0,0,10.53-2.63l.29-.1h0a38.81,38.81,0,0,0,5.41-2.59l.06,0c.84-.48,1.64-1,2.38-1.51h0l.54-.47,0,0c.19-.2.45-.47.75-.83a28.48,28.48,0,0,0,4.24-6.15c.21-.43.4-.88.57-1.33,1.52-4,1-8.37-6.29-10.24l-.29-.25c-.21,0-.43,0-.64-.06l-.38,0h-.33a4.66,4.66,0,0,0-.64,0,21.89,21.89,0,0,0-2.47.11h-.07a17.49,17.49,0,0,0-7.11,1.73c-.56.26-1.18.39-2.1.7l0-.07A23.31,23.31,0,0,1,126,75.84a39.51,39.51,0,0,1-.6-4.78A40.39,40.39,0,0,1,130,49.84c-.51-1.8-2.59-9.4-1.6-8.85s2.06,4.94,2.58,7.07l.11-.18.12-.21a.1.1,0,0,1,0-.05.64.64,0,0,1,.08-.14h0c0-1.28-.14-14,1-13.08.9.77.88,7.23.82,10.27.35-.49.72-1,1.1-1.45a43,43,0,0,1,15.41-12.5c12.35-5.89,25-6.24,37.22-.11a76.38,76.38,0,0,1,10,6.25c6.55,3.22,14.13,6.55,17.15,6.36,4.56-.3-.49,2.42-2.77,3.57A58,58,0,0,0,221.48,52a24,24,0,0,0,12.09,1.37C236.51,53,237,53.68,236.45,56.64Z" transform="translate(-76.37 -26.15)"/><path class="cls-2" d="M159,74a16.55,16.55,0,0,1-1.72,0c-4.31-8.79-13.46-11.76-14.68-12.11a18.53,18.53,0,0,1-.3-2A15.42,15.42,0,1,1,159,74Z" transform="translate(-76.37 -26.15)"/><path class="cls-1" d="M287.73,130.09C273,130.09,264,121.35,264,106.5,264.05,84.86,280.26,64,302.87,64c14.76,0,24.27,7.77,24.27,23C327.14,109.42,311.32,130.09,287.73,130.09Zm14.08-61.24c-16.21,0-23.59,26.4-23.59,39.21,0,7.47,1.94,17.08,11.26,17.08,15.92,0,23.39-27.56,23.39-40.28C312.87,77.48,310.93,68.85,301.81,68.85Z" transform="translate(-76.37 -26.15)"/><path class="cls-1" d="M379.11,128.83H369.9a1.62,1.62,0,0,1-1.59-2l5.59-26.58a1.62,1.62,0,0,0-1.58-2H349.61A1.62,1.62,0,0,0,348,99.64l-5.77,27.9a1.63,1.63,0,0,1-1.59,1.29h-9.21a1.62,1.62,0,0,1-1.58-2l12.62-60a1.6,1.6,0,0,1,1.58-1.28h9.12a1.62,1.62,0,0,1,1.58,2l-5,23.86a1.62,1.62,0,0,0,1.59,2h22.7a1.61,1.61,0,0,0,1.58-1.3l5.2-25.17a1.61,1.61,0,0,1,1.58-1.29h9.21a1.62,1.62,0,0,1,1.59,2l-12.53,60A1.62,1.62,0,0,1,379.11,128.83Z" transform="translate(-76.37 -26.15)"/><path class="cls-1" d="M437.87,93.4a1.62,1.62,0,0,0,0,3c4.8,1.9,8.63,5.39,8.63,11.37,0,13.2-11.36,22.32-24.07,22.32a26.33,26.33,0,0,1-10-2,1.61,1.61,0,0,1-1-1.27l-.08-.59a1.62,1.62,0,0,1,1.85-1.81,32.93,32.93,0,0,0,5.34.49c8.44,0,13.68-10.39,13.68-17.86,0-9.32-8.59-9.44-15.67-9.42A1.62,1.62,0,0,0,415,99l-5.87,28.58a1.63,1.63,0,0,1-1.59,1.29h-9.2a1.62,1.62,0,0,1-1.59-2l12.62-60.07a1.62,1.62,0,0,1,1.56-1.28c5.88-.09,11.76-.18,17.64-.18,7.76.1,20.77.49,20.77,11.07C449.34,83.82,444.47,90.5,437.87,93.4Zm-12-23.78H422.5a1.62,1.62,0,0,0-1.58,1.29l-4.27,20.45a1.62,1.62,0,0,0,1.58,2h3.06c8.83,0,14.55-6.8,14.55-15.44C435.84,71.66,431.38,69.62,425.85,69.62Z" transform="translate(-76.37 -26.15)"/><path class="cls-1" d="M505.82,105.83c-3.39,16.2-13.1,24.36-29.7,24.36-18.73,0-22.22-10-18.92-25.72l8-37.64a1.62,1.62,0,0,1,1.58-1.28h10.29a1.61,1.61,0,0,1,1.58,1.94l-8.33,40c-1.65,7.86-1.55,17.47,9.42,17.47s15.91-9.71,17.85-19.22l8.08-38.89a1.63,1.63,0,0,1,1.59-1.29h5a1.62,1.62,0,0,1,1.58,2Z" transform="translate(-76.37 -26.15)"/><path class="cls-1" d="M556.8,107.84,553.37,124a1.64,1.64,0,0,1-1.68,1.29c-12.57-.55-21.6-8.51-21.6-21.71,0-18.83,13.3-33.39,32.42-33.39a47.86,47.86,0,0,1,9.19,1.05,1.62,1.62,0,0,0,1.93-1.62l0-2.14A1.6,1.6,0,0,0,572.45,66,58.65,58.65,0,0,0,556,64.09c-20.86,0-40.76,19.9-40.76,40.77,0,15.62,12,25.23,27.08,25.23,7.17,0,14.35-.43,21.53-1.14a1.61,1.61,0,0,0,1.42-1.28l4-19,.89-4.25a1.62,1.62,0,0,0-1.58-1.95h-9.29a1.63,1.63,0,0,0-1.59,1.28Z" transform="translate(-76.37 -26.15)"/><text x="-76.37" y="-26.15"/><path class="cls-1" d="M136.4,76.64Z" transform="translate(-76.37 -26.15)"/><path d="M145.47,80.61c0,.14.06.27.09.42a5.81,5.81,0,0,0-1.52-.74C144.52,80.38,145,80.48,145.47,80.61Z" transform="translate(-76.37 -26.15)"/><path d="M145.87,81.23l0,0h0Z" transform="translate(-76.37 -26.15)"/><path d="M138,88.37l-.15.1.2-.11Z" transform="translate(-76.37 -26.15)"/><path class="cls-3" d="M148,84.92a8.54,8.54,0,0,0-.35-2.14,10.56,10.56,0,0,0-2.15-3.8l-.07,0a10.16,10.16,0,0,0-2.13-1.85,1.09,1.09,0,0,0-.23-.09c-.33-.13-.68-.23-1.05-.34l-.72-.18h0l-.3-.08-1-.2h-.59a20.86,20.86,0,0,0-2.62.1l.47.19-.68,0a13.42,13.42,0,0,1,1.78.89C141,79,145,82.65,138,87.89l.66-.15c-.17.14-.36.27-.54.4l-.57.36-.12.07.07,0,.48-.31A30.15,30.15,0,0,1,135,89.49c-.91.35-1.82.65-2.67.91-2.33.74-4.19,1.14-4.33,1.18s-.24.06-.55.15-.87.23-1.51.36c-.27.07-.56.13-.88.19a42.1,42.1,0,0,1-8.13.82c-8.31,0-19-2.7-24-15.28l0,0a38.48,38.48,0,0,1-2.24-9.06v0a64.13,64.13,0,0,1-.36-11.94v0c0-.7.07-1.42.14-2.16,0-.34,0-.68.08-1a0,0,0,0,1,0,0c0,.06-.11.36-.24.85,0,.09,0,.18-.07.27a.06.06,0,0,0,0,0c0,.1-.06.21-.09.34s0,.11,0,.17a1.6,1.6,0,0,0,0,.21,4,4,0,0,0-.11.41l-.11.48c0,.2-.09.4-.14.62v0a.45.45,0,0,0,0,.08c-.54,1.69-7.48,24.2,2.45,37.23,4.21,5.54,11.47,9.35,23.56,9.13h0c1,0,2.06-.07,3.14-.15h0c1.12-.07,2.21-.18,3.26-.32h0l.32,0a36,36,0,0,0,12.71-2.66l.23-.1a23.51,23.51,0,0,0,6.34-4h0a20.75,20.75,0,0,0,1.56-1.54c.41-.46.77-.9,1.11-1.33.13-.19.27-.37.39-.55a14.2,14.2,0,0,0,.82-1.28l0,0A9.3,9.3,0,0,0,148,84.92Zm-5.07-2a.83.83,0,0,0,0-.15l.3,0-.11.16-.4.56A3.38,3.38,0,0,0,142.91,83Zm-.22-5.39h0s0,0,0,0Zm1.25,5.31,0-.15,2.16-.17h.17l.06.15Zm2.79,5.39-.15,0,0,0,.13,0Z" transform="translate(-76.37 -26.15)"/><path class="cls-4" d="M125.42,71.05s0,5.53,1.7,8a13.41,13.41,0,0,0,2.09-.7C130.27,77.91,125.5,73.34,125.42,71.05Z" transform="translate(-76.37 -26.15)"/><path class="cls-4" d="M139.61,76.55Z" transform="translate(-76.37 -26.15)"/><path d="M122.91,79.08" transform="translate(-76.37 -26.15)"/><circle class="cls-1" cx="81.34" cy="31.36" r="6.42"/><polygon class="cls-1" points="14.41 25.93 13.24 29.76 12.29 32.21 11.1 34.82 10.6 34.61 14.41 25.93"/><path d="M148,85.19A17.2,17.2,0,0,1,141.26,97V93.67Z" transform="translate(-76.37 -26.15)"/><path class="cls-3" d="M148.07,85.79c0,4.12-2,7.61-4.73,8.8a5.27,5.27,0,0,1-2.08.43c-2.79,0-5.19-2.27-6.24-5.53A30.15,30.15,0,0,0,138,88.21l-.48.31-.07,0,.12-.07.57-.36c.18-.13.37-.26.54-.4l-.66.15c7-5.24,3-8.89.38-10.47a5.32,5.32,0,0,1,2.89-.87h0C145,76.56,148.07,80.69,148.07,85.79Z" transform="translate(-76.37 -26.15)"/><path d="M146.74,91.56s-2.65,5.56-11.32,8.57,1.47-6.24,1.47-6.24l4.65-3.66Z" transform="translate(-76.37 -26.15)"/></svg>
